<svg width="100" height="100" viewBox="0 0 100 100" fill="none" xmlns="http://www.w3.org/2000/svg">
<path d="M75.9598 78.3824C72.4209 74.2259 72.0903 72.7224 72.0609 72.5165C72.0339 72.7235 71.7021 74.2259 68.1645 78.3824C64.0327 83.2353 66.4056 89.5753 72.0621 89.5882C77.6821 89.5753 80.0915 83.2353 75.9598 78.3824Z" stroke="#FECD1A" stroke-width="2.5" stroke-linecap="round" stroke-linejoin="round"/>
<path d="M19.7363 57.9847H37.1857C39.4857 61.1542 43.2081 63.2236 47.4246 63.2236C51.6399 63.2236 55.3622 61.1542 57.6622 57.9847H60.0775C60.0775 57.9847 65.6152 57.5412 65.6152 65.0047" stroke="#61B15A" stroke-width="2.5" stroke-miterlimit="10" stroke-linecap="round" stroke-linejoin="round"/>
<path d="M77.6741 65.0047C77.6741 65.0047 79.7741 46.1036 57.5223 43.7612L57.3106 43.6918V34.0836H38.7259V43.453H25.2917" stroke="#61B15A" stroke-width="2.5" stroke-miterlimit="10" stroke-linejoin="round"/>
<path d="M42.2339 27.1506H53.7998V33.9471" stroke="#61B15A" stroke-width="2.5" stroke-miterlimit="10" stroke-linecap="round" stroke-linejoin="round"/>
<path d="M51.9717 18.2341L64.9658 19.7777C67.3599 20 69.3176 18.2153 69.3176 15.8118V14.8871C69.3176 12.4824 67.3599 10.6965 64.9658 10.9189L51.9717 12.4636" stroke="#61B15A" stroke-width="2.5" stroke-miterlimit="10" stroke-linejoin="round"/>
<path d="M44.1845 12.46L31.1916 10.9177C28.7974 10.6953 26.8386 12.4812 26.8386 14.8836V15.8095C26.8386 18.2142 28.7974 19.9989 31.1916 19.7753L44.1845 18.2318" stroke="#61B15A" stroke-width="2.5" stroke-miterlimit="10" stroke-linejoin="round"/>
<path d="M63.2104 65.253H80.2622" stroke="#61B15A" stroke-width="2.5" stroke-miterlimit="10" stroke-linecap="round"/>
<path d="M48.0835 20.4047V26.8753" stroke="#61B15A" stroke-width="2.5" stroke-miterlimit="10"/>
<path d="M48.0775 20.1494C50.7661 20.1494 52.9457 17.9699 52.9457 15.2812C52.9457 12.5925 50.7661 10.413 48.0775 10.413C45.3888 10.413 43.2092 12.5925 43.2092 15.2812C43.2092 17.9699 45.3888 20.1494 48.0775 20.1494Z" stroke="#61B15A" stroke-width="2.5" stroke-miterlimit="10" stroke-linejoin="round"/>
<path d="M19.7363 40.9812V61.2494" stroke="#61B15A" stroke-width="2.5" stroke-miterlimit="10" stroke-linecap="round" stroke-linejoin="round"/>
</svg>
