<svg width="100" height="100" viewBox="0 0 100 100" fill="none" xmlns="http://www.w3.org/2000/svg">
<path d="M64.5834 52.0833H56.2501V43.75H43.7501V52.0833H35.4167V64.5833H43.7501V72.9167H56.2501V64.5833H64.5834V52.0833Z" stroke="#FECD1A" stroke-width="2.5" stroke-linecap="round" stroke-linejoin="round"/>
<path d="M10.4167 77.0833V35.4166C10.4167 33.2065 11.2947 31.0869 12.8575 29.5241C14.4203 27.9613 16.5399 27.0833 18.7501 27.0833H25.1167C26.4098 27.0834 27.6851 27.3844 28.8417 27.9625L33.6584 30.3708C34.8151 30.9489 36.0904 31.2499 37.3834 31.25H62.6167C63.9098 31.2499 65.1851 30.9489 66.3417 30.3708L71.1584 27.9625C72.3151 27.3844 73.5904 27.0834 74.8834 27.0833H81.2501C83.4602 27.0833 85.5798 27.9613 87.1426 29.5241C88.7054 31.0869 89.5834 33.2065 89.5834 35.4166V77.0833C89.5834 79.2935 88.7054 81.4131 87.1426 82.9759C85.5798 84.5387 83.4602 85.4167 81.2501 85.4167H18.7501C16.5399 85.4167 14.4203 84.5387 12.8575 82.9759C11.2947 81.4131 10.4167 79.2935 10.4167 77.0833Z" stroke="#61B15A" stroke-width="2.5" stroke-linecap="round" stroke-linejoin="round"/>
<path d="M31.25 20.8333L33.475 16.7541C33.8336 16.0971 34.3625 15.5487 35.0063 15.1667C35.65 14.7847 36.3848 14.5832 37.1333 14.5833H62.8667C63.6152 14.5832 64.35 14.7847 64.9937 15.1667C65.6375 15.5487 66.1664 16.0971 66.525 16.7541L68.75 20.8333" stroke="#61B15A" stroke-width="2.5" stroke-linecap="round" stroke-linejoin="round"/>
</svg>
