<svg width="100" height="100" viewBox="0 0 100 100" fill="none" xmlns="http://www.w3.org/2000/svg">
<path d="M68.0281 89.8078C68.0312 89.8453 68.0469 89.8844 68.0469 89.9219C68.0469 92.3688 64.6 95.9375 50 95.9375C35.4 95.9375 31.4844 92.3688 31.4844 89.9219C31.4844 89.8391 31.5125 89.7547 31.525 89.6703C30.5219 89.3563 29.5531 89.0203 28.6187 88.6594C28.5625 88.9188 28.5156 89.1797 28.5156 89.4547C28.5156 94.7813 38.0859 98.4375 50 98.4375C61.9141 98.4375 71.4844 94.7813 71.4844 89.4531C71.4844 89.1797 71.4375 88.9172 71.3797 88.6578C70.3078 89.0735 69.1906 89.4547 68.0281 89.8078Z" fill="#61B15A"/>
<path d="M96.4844 52.4219C96.4844 52.8094 95.1797 90.4687 50 90.4687C4.82031 90.4687 3.20312 52.8094 3.20312 52.4219H1.95312C1.95313 52.8328 2.50312 93.125 50 93.125C97.4969 93.125 98.0469 52.8328 98.0469 52.4219H96.4844Z" fill="#61B15A"/>
<path d="M95.0312 5.28753C93.5016 4.04691 91.5906 3.50159 89.6266 3.75159C87.6734 4.00159 85.9547 5.01253 84.7891 6.59847L63.1062 37.0969C58.0562 36.1125 52.3516 37.5328 48.6859 42.0532C46.6969 44.5063 45.6359 47.3266 45.3047 50.1203C45.9594 50.3766 46.9391 51.2 47.375 51.6641C47.4672 48.9032 48.4984 46.0047 50.5047 43.5297C53.1109 40.3157 56.9109 38.4532 60.5422 38.4532C61.4078 38.4532 62.2625 38.5578 63.0906 38.7782C63.5547 38.8969 64.0484 38.7266 64.3328 38.3407L86.6781 7.98753C87.4609 6.92191 88.6141 6.24378 89.9266 6.07503C91.2297 5.90628 92.5281 6.27347 93.5547 7.10628C94.5812 7.93909 95.2062 9.12503 95.3125 10.4438C95.4172 11.7625 94.9922 13.0313 94.1109 14.0188L69.0266 42.1438C68.7062 42.5032 68.6375 43.0219 68.8547 43.4516C70.0359 45.7969 70.2062 48.6203 69.5031 51.361C70.2406 51.4125 70.9297 51.586 71.5781 51.8438C72.1797 48.8219 71.8641 45.7016 70.7125 42.9891L95.8609 15.5797C97.1719 14.1094 97.8078 12.2188 97.65 10.2563C97.4922 8.29378 96.5609 6.52816 95.0312 5.28753Z" fill="#FECD1A"/>
<path d="M74.1704 52.8125C71.6766 49.9688 68.8985 49.3766 65.0579 51.0047C64.4657 50.3594 63.7125 49.886 62.8625 49.6375C61.6469 49.2797 60.361 49.4172 59.2579 49.9938C58.7235 49.5078 58.0938 49.15 57.3938 48.9469C55.8469 48.4938 54.1954 48.8578 52.9688 49.8469C52.5844 49.5985 52.1688 49.4063 51.7344 49.2782C50.1985 48.8282 48.5829 49.161 47.3594 50.1266C46.9672 49.8672 46.5422 49.6703 46.0938 49.5391C44.3266 49.0203 41.8938 48.7938 40.136 51.486C42.1875 50.9422 44.286 49.4547 47.7735 52.1422C48.8282 50.1875 52.0016 50.6828 53.1157 52.1391C54.3454 50.3328 57.9594 51.0172 58.9094 52.236C60.6938 51.0172 64.0141 51.7563 65.2329 53.0469C69.3735 50.8797 70.2782 51.6578 74.1704 52.8125Z" fill="#FECD1A"/>
<path d="M13.5483 61.7516C15.4515 63.3844 17.989 63.6735 19.4687 63.6813C17.3171 63.0938 15.3327 62.45 13.5483 61.7516Z" fill="#61B15A"/>
<path d="M28.7874 65.6578C28.8874 65.6844 28.9952 65.6891 29.0967 65.7078C28.9936 65.6907 28.8905 65.6735 28.7874 65.6578Z" fill="#61B15A"/>
<path d="M95.7031 52.4219C95.7031 59.025 77.3391 65.9375 50 65.9375C22.6609 65.9375 4.29688 59.025 4.29688 52.4219C4.29688 49.2672 7.62188 45.7406 15.375 42.7859C22.0578 40.2422 31.8391 37.7516 41.8969 36.7109C37.5672 36.4828 32.7375 37.0313 28.0078 37.8281C14.6609 40.0797 1.95312 45.0203 1.95312 52.4219C1.95312 62.4469 26.3828 68.4375 50 68.4375C73.6172 68.4375 98.0469 62.4469 98.0469 52.4219C98.0469 46.3859 85.4172 41.0797 76.9891 40.225C83.0859 42.5219 87.6469 43.9672 90.6469 45.9797C94.2922 48.4266 95.7031 50.8688 95.7031 52.4219Z" fill="#61B15A"/>
</svg>
