<svg width="100" height="100" viewBox="0 0 100 100" fill="none" xmlns="http://www.w3.org/2000/svg">
<path d="M45.3852 61.3806L12.0976 42.3473C11.4604 41.9827 10.9307 41.4562 10.5624 40.8211C10.194 40.186 10 39.4648 10 38.7306C10 37.9964 10.194 37.2753 10.5624 36.6402C10.9307 36.0051 11.4604 35.4786 12.0976 35.114L45.3852 16.0973C46.644 15.3782 48.0687 15 49.5185 15C50.9683 15 52.3929 15.3782 53.6518 16.0973L86.9393 35.1181C87.5766 35.4827 88.1062 36.0092 88.4746 36.6443C88.843 37.2794 89.037 38.0006 89.037 38.7348C89.037 39.469 88.843 40.1902 88.4746 40.8253C88.1062 41.4604 87.5766 41.9869 86.9393 42.3515L53.6518 61.3723C52.3937 62.0927 50.9694 62.4723 49.5196 62.4738C48.0698 62.4753 46.6447 62.0985 45.3852 61.3806Z" stroke="#61B15A" stroke-width="2.5" stroke-linecap="round" stroke-linejoin="round"/>
<path d="M71.7978 59.4307L72.3812 65.8265C74.2687 91.5515 24.7687 91.5515 26.6562 65.8265L27.2395 59.4307" stroke="#FECD1A" stroke-width="2.5" stroke-linecap="round" stroke-linejoin="round"/>
<path d="M84.9346 43.5057V66.8682" stroke="#61B15A" stroke-width="2.5" stroke-linecap="round" stroke-linejoin="round"/>
<path d="M84.9347 83.5348C87.2359 83.5348 89.1014 79.8039 89.1014 75.2015C89.1014 70.5991 87.2359 66.8682 84.9347 66.8682C82.6335 66.8682 80.7681 70.5991 80.7681 75.2015C80.7681 79.8039 82.6335 83.5348 84.9347 83.5348Z" stroke="#61B15A" stroke-width="2.5" stroke-linecap="round" stroke-linejoin="round"/>
<path d="M43.5552 37.9265C43.5552 36.5265 46.226 35.3931 49.5177 35.3931C52.8093 35.3931 55.4802 36.5265 55.4802 37.9265" stroke="#61B15A" stroke-width="2.5" stroke-linecap="round" stroke-linejoin="round"/>
</svg>
